# xmcd
#
# Track frame offsets:
#	150
#	16595
#	34150
#
# Disc length: 684 seconds
#
# Revision: 1
# Processed by: cddbd v1.5.2PL0 Copyright (c) Steve Scherf et al.
# Submitted via: audiograbber 1.83.01
#
DISCID=1502aa03
DTITLE=Freddy März - Maxi
DYEAR=1996
DGENRE=Schlager toprari
TTITLE0=Für immer mit dir
TTITLE1=Für immer mit dir Club Mix
TTITLE2=Für immer mit dir Karaoke Version
EXTD=
EXTT0=
EXTT1=
EXTT2=
PLAYORDER=
